# xmcd
# 
# Track frame offsets:
#     150
#     19931
#     39938
#     59716
# 
# Disc length: 1061
# 
# Revision: 2
# Processed by: cddbd v1.5.2PL0 Copyright (c) Steve Scherf et al.
# Submitted via: fre:ac v1.0.17
# 
DISCID=2f042304
DTITLE=Shizuku Secret Mind - Unicorn in the Blue - Voyage
DYEAR=2016
DGENRE=Rock
TTITLE0=Unicorn in the Blue
TTITLE1=Voyage
TTITLE2=Unicorn in the Blue [Instrumental]
TTITLE3=Voyage [Instrumental]
EXTD=
EXTT0=
EXTT1=
EXTT2=
EXTT3=
PLAYORDER=
